<svg width="90" height="91" viewBox="0 0 90 91" fill="none" xmlns="http://www.w3.org/2000/svg">
<g opacity="0.5" filter="url(#filter0_f_25_374)">
<path d="M76.7833 49.6778C78.9631 47.4444 78.9631 43.8798 76.7833 41.6464L49.4658 13.6571C47.2098 11.3456 43.4928 11.3456 41.2368 13.6571L13.9193 41.6464C11.7395 43.8798 11.7395 47.4444 13.9193 49.6778L41.2368 77.6672C43.4928 79.9787 47.2098 79.9787 49.4658 77.6672L76.7833 49.6778Z" fill="url(#paint0_linear_25_374)"/>
</g>
<path d="M76.7833 49.6778C78.9631 47.4444 78.9631 43.8798 76.7833 41.6464L49.4658 13.6571C47.2098 11.3456 43.4928 11.3456 41.2368 13.6571L13.9193 41.6464C11.7395 43.8798 11.7395 47.4444 13.9193 49.6778L41.2368 77.6672C43.4928 79.9787 47.2098 79.9787 49.4658 77.6672L76.7833 49.6778Z" fill="url(#paint1_linear_25_374)"/>
<g clip-path="url(#clip0_25_374)">
<path d="M50.4958 45.4861C50.0146 45.2571 49.5195 45.0583 49.0135 44.891C50.6431 43.6678 51.6992 41.7201 51.6992 39.5304C51.6992 35.8365 48.694 32.8313 45.0001 32.8313C41.3062 32.8313 38.3011 35.8365 38.3011 39.5304C38.3011 41.7225 39.3595 43.6722 40.9922 44.8951C39.4963 45.3876 38.0927 46.1539 36.8642 47.1643C34.6115 49.0173 33.0453 51.6018 32.4541 54.4418C32.2687 55.3317 32.4908 56.2458 33.063 56.9495C33.6325 57.6497 34.4769 58.0513 35.3797 58.0513H47.5123C48.0564 58.0513 48.4974 57.6102 48.4974 57.0661C48.4974 56.522 48.0564 56.081 47.5123 56.081H35.3797C34.9592 56.081 34.7054 55.8462 34.5916 55.7063C34.3952 55.4647 34.3191 55.1502 34.383 54.8434C35.4053 49.9326 39.7369 46.3454 44.739 46.2244C44.9139 46.2312 45.0889 46.2311 45.2638 46.2243C46.7967 46.2603 48.271 46.6101 49.65 47.2656C50.1414 47.4991 50.729 47.2902 50.9626 46.7987C51.1962 46.3074 50.9873 45.7197 50.4958 45.4861ZM45.2404 44.2531C45.0808 44.2501 44.9213 44.2501 44.7617 44.2532C42.2646 44.1286 40.2714 42.0579 40.2714 39.5304C40.2714 36.9229 42.3927 34.8016 45.0001 34.8016C47.6076 34.8016 49.7289 36.9229 49.7289 39.5304C49.7289 42.0572 47.7366 44.1275 45.2404 44.2531Z" fill="#696771"/>
<path d="M56.6248 52.3867H53.9156V49.6775C53.9156 49.1334 53.4746 48.6924 52.9305 48.6924C52.3864 48.6924 51.9453 49.1334 51.9453 49.6775V52.3867H49.2361C48.692 52.3867 48.251 52.8278 48.251 53.3719C48.251 53.916 48.692 54.357 49.2361 54.357H51.9453V57.0662C51.9453 57.6103 52.3864 58.0514 52.9305 58.0514C53.4746 58.0514 53.9156 57.6103 53.9156 57.0662V54.357H56.6248C57.1689 54.357 57.61 53.916 57.61 53.3719C57.61 52.8278 57.1689 52.3867 56.6248 52.3867Z" fill="#696771"/>
</g>
<defs>
<filter id="filter0_f_25_374" x="0.785786" y="0.424702" width="89.1311" height="90.4748" filterUnits="userSpaceOnUse" color-interpolation-filters="sRGB">
<feFlood flood-opacity="0" result="BackgroundImageFix"/>
<feBlend mode="normal" in="SourceGraphic" in2="BackgroundImageFix" result="shape"/>
<feGaussianBlur stdDeviation="5.74932" result="effect1_foregroundBlur_25_374"/>
</filter>
<linearGradient id="paint0_linear_25_374" x1="10" y1="9.44141" x2="80.1417" y2="81.8828" gradientUnits="userSpaceOnUse">
<stop stop-color="#FDFCFF"/>
<stop offset="1" stop-color="#EFEFEF"/>
</linearGradient>
<linearGradient id="paint1_linear_25_374" x1="10" y1="9.44141" x2="80.1417" y2="81.8828" gradientUnits="userSpaceOnUse">
<stop stop-color="#FDFCFF"/>
<stop offset="1" stop-color="#EFEFEF"/>
</linearGradient>
<clipPath id="clip0_25_374">
<rect width="26" height="26" fill="white" transform="translate(32 32.4414)"/>
</clipPath>
</defs>
</svg>
