<svg width="26" height="27" viewBox="0 0 26 27" fill="none" xmlns="http://www.w3.org/2000/svg">
<g clip-path="url(#clip0_25_377)">
<path d="M18.4958 13.4861C18.0146 13.2571 17.5195 13.0583 17.0135 12.891C18.6431 11.6678 19.6992 9.72012 19.6992 7.53036C19.6992 3.83652 16.694 0.831299 13.0001 0.831299C9.30623 0.831299 6.30106 3.83652 6.30106 7.53036C6.30106 9.72253 7.35951 11.6722 8.99216 12.8951C7.4963 13.3876 6.0927 14.1539 4.86421 15.1643C2.61155 17.0173 1.0453 19.6018 0.454054 22.4418C0.268746 23.3317 0.490751 24.2458 1.06303 24.9495C1.6325 25.6497 2.47693 26.0513 3.37972 26.0513H15.5123C16.0564 26.0513 16.4974 25.6102 16.4974 25.0661C16.4974 24.522 16.0564 24.081 15.5123 24.081H3.37972C2.95916 24.081 2.70543 23.8462 2.59165 23.7063C2.39516 23.4647 2.3191 23.1502 2.38299 22.8434C3.40534 17.9326 7.73687 14.3454 12.739 14.2244C12.9139 14.2312 13.0889 14.2311 13.2638 14.2243C14.7967 14.2603 16.271 14.6101 17.65 15.2656C18.1414 15.4991 18.729 15.2902 18.9626 14.7987C19.1962 14.3074 18.9873 13.7197 18.4958 13.4861ZM13.2404 12.2531C13.0808 12.2501 12.9213 12.2501 12.7617 12.2532C10.2646 12.1286 8.27137 10.0579 8.27137 7.53036C8.27137 4.9229 10.3927 2.80161 13.0001 2.80161C15.6076 2.80161 17.7289 4.9229 17.7289 7.53036C17.7289 10.0572 15.7366 12.1275 13.2404 12.2531Z" fill="#EEF0FF"/>
<path d="M24.6248 20.3867H21.9156V17.6775C21.9156 17.1334 21.4746 16.6924 20.9305 16.6924C20.3864 16.6924 19.9453 17.1334 19.9453 17.6775V20.3867H17.2361C16.692 20.3867 16.251 20.8278 16.251 21.3719C16.251 21.916 16.692 22.357 17.2361 22.357H19.9453V25.0662C19.9453 25.6103 20.3864 26.0514 20.9305 26.0514C21.4746 26.0514 21.9156 25.6103 21.9156 25.0662V22.357H24.6248C25.1689 22.357 25.61 21.916 25.61 21.3719C25.61 20.8278 25.1689 20.3867 24.6248 20.3867Z" fill="#EEF0FF"/>
</g>
<defs>
<clipPath id="clip0_25_377">
<rect width="26" height="26" fill="white" transform="translate(0 0.441406)"/>
</clipPath>
</defs>
</svg>
