<svg width="9" height="17" viewBox="0 0 9 17" fill="none" xmlns="http://www.w3.org/2000/svg">
<path d="M-7.62939e-06 8.49991C-0.000102997 8.40679 0.0181999 8.31457 0.0538511 8.22855C0.0895023 8.14252 0.141797 8.06439 0.207734 7.99864L7.2979 0.90847C7.57495 0.631422 8.02358 0.631422 8.30045 0.90847C8.57732 1.18552 8.5775 1.63415 8.30045 1.91102L1.71156 8.49991L8.30045 15.0888C8.5775 15.3659 8.5775 15.8145 8.30045 16.0914C8.02341 16.3682 7.57478 16.3684 7.2979 16.0914L0.207734 9.00119C0.141797 8.93543 0.0895023 8.8573 0.0538511 8.77127C0.0181999 8.68525 -0.000102997 8.59303 -7.62939e-06 8.49991Z" fill="#EEF0FF"/>
</svg>
