<svg width="27" height="27" viewBox="0 0 27 27" fill="none" xmlns="http://www.w3.org/2000/svg">
<g clip-path="url(#clip0_162_313)">
<mask id="mask0_162_313" style="mask-type:luminance" maskUnits="userSpaceOnUse" x="0" y="0" width="27" height="27">
<path fill-rule="evenodd" clip-rule="evenodd" d="M0 0H27V27H0V0Z" fill="white"/>
</mask>
<g mask="url(#mask0_162_313)">
<path fill-rule="evenodd" clip-rule="evenodd" d="M3.9673 6.04793L3.8593 5.83109C3.81011 5.73156 3.74156 5.64285 3.65768 5.57012C3.5738 5.49739 3.47626 5.44212 3.37077 5.40752C3.26575 5.37217 3.15474 5.35807 3.04422 5.36603C2.93369 5.374 2.82586 5.40388 2.72699 5.45393C2.6268 5.50194 2.53752 5.56999 2.46466 5.65388C2.39181 5.73776 2.33694 5.83569 2.30343 5.94162C2.26682 6.04641 2.25206 6.15759 2.26004 6.26831C2.26802 6.37903 2.29858 6.48694 2.34983 6.5854L3.46358 8.81459C3.51278 8.91411 3.58132 9.00283 3.66521 9.07555C3.74909 9.14828 3.84662 9.20356 3.95212 9.23815C4.07383 9.27918 4.20337 9.29162 4.33067 9.2745C4.45798 9.25738 4.57962 9.21116 4.68618 9.13943L9.74868 5.76443C9.84137 5.7034 9.92097 5.62451 9.98283 5.53238C10.0447 5.44024 10.0876 5.3367 10.109 5.22781C10.131 5.11926 10.1312 5.00742 10.1096 4.89879C10.088 4.79015 10.0451 4.68689 9.98324 4.59499C9.92316 4.50146 9.84455 4.42123 9.75225 4.35926C9.65996 4.29729 9.55594 4.25491 9.44662 4.23471C9.33814 4.2114 9.22604 4.21052 9.11721 4.23214C9.00838 4.25376 8.90513 4.29742 8.8138 4.36043L7.17271 5.45309L4.54612 7.20556L3.9673 6.04793ZM13.5 5.06243C13.2671 5.06243 13.068 5.14512 12.9035 5.30965C12.7389 5.47418 12.6562 5.67246 12.6562 5.90618C12.6562 6.1399 12.7389 6.33818 12.9035 6.50271C12.9807 6.58246 13.0735 6.64554 13.1761 6.68805C13.2787 6.73057 13.3889 6.75163 13.5 6.74993H25.3125C25.4235 6.75163 25.5337 6.73057 25.6363 6.68805C25.7389 6.64554 25.8317 6.58246 25.909 6.50271C26.0736 6.33818 26.1562 6.1399 26.1562 5.90618C26.1562 5.67246 26.0736 5.47418 25.909 5.30965C25.7445 5.14512 25.5462 5.06243 25.3125 5.06243H13.5ZM3.98502 12.7979L3.87618 12.5811C3.82803 12.4811 3.75993 12.392 3.67606 12.3193C3.59218 12.2466 3.49432 12.1918 3.38849 12.1584C3.28376 12.1216 3.17261 12.1067 3.06188 12.1145C2.95116 12.1223 2.84321 12.1528 2.74471 12.2039C2.64527 12.253 2.5566 12.3214 2.48388 12.4052C2.41116 12.4889 2.35584 12.5863 2.32115 12.6916C2.28579 12.7966 2.27169 12.9076 2.27966 13.0182C2.28762 13.1287 2.3175 13.2365 2.36755 13.3354L3.4813 15.5646C3.52941 15.6649 3.59759 15.7542 3.68162 15.8271C3.76566 15.8999 3.86375 15.9547 3.96983 15.9881C4.09127 16.031 4.22114 16.0444 4.34875 16.0272C4.47637 16.01 4.59809 15.9628 4.7039 15.8894L9.7664 12.5144C9.85978 12.4543 9.93985 12.3756 10.0017 12.2833C10.0635 12.191 10.1057 12.0871 10.1258 11.9778C10.1493 11.8694 10.1503 11.7573 10.1288 11.6485C10.1073 11.5397 10.0638 11.4364 10.001 11.345C9.94092 11.2514 9.86232 11.1712 9.77001 11.1092C9.67771 11.0472 9.57367 11.0049 9.46433 10.9847C9.35586 10.9614 9.24376 10.9605 9.13493 10.9821C9.0261 11.0038 8.92285 11.0474 8.83152 11.1104L4.56299 13.9556L3.98502 12.7979ZM13.5 12.6562C13.2671 12.6562 13.068 12.7389 12.9035 12.9034C12.7389 13.0679 12.6562 13.2662 12.6562 13.4999C12.6562 13.7337 12.7389 13.9319 12.9035 14.0965C13.068 14.261 13.2663 14.3437 13.5 14.3437H25.3125C25.5454 14.3437 25.7445 14.261 25.909 14.0965C26.0736 13.9319 26.1562 13.7337 26.1562 13.4999C26.1562 13.2662 26.0736 13.0679 25.909 12.9034C25.7445 12.7389 25.5462 12.6562 25.3125 12.6562H13.5ZM3.98502 19.5479L3.87618 19.3311C3.82807 19.2311 3.75998 19.1419 3.67611 19.0692C3.59223 18.9965 3.49434 18.9418 3.38849 18.9084C3.28376 18.8716 3.17261 18.8567 3.06188 18.8645C2.95116 18.8723 2.84321 18.9028 2.74471 18.9539C2.64527 19.003 2.5566 19.0714 2.48388 19.1552C2.41116 19.2389 2.35584 19.3363 2.32115 19.4416C2.28579 19.5466 2.27169 19.6576 2.27966 19.7682C2.28762 19.8787 2.3175 19.9865 2.36755 20.0854L3.4813 22.3146C3.52941 22.4149 3.59759 22.5042 3.68162 22.5771C3.76566 22.6499 3.86375 22.7047 3.96983 22.7381C4.09127 22.781 4.22114 22.7944 4.34875 22.7772C4.47637 22.76 4.59809 22.7128 4.7039 22.6394L9.7664 19.2644C9.85893 19.2033 9.93837 19.1244 10.0001 19.0323C10.0618 18.9401 10.1045 18.8366 10.1258 18.7278C10.148 18.6193 10.1483 18.5075 10.1269 18.3989C10.1054 18.2902 10.0626 18.1869 10.001 18.095C9.94092 18.0014 9.86232 17.9212 9.77001 17.8592C9.67771 17.7972 9.57367 17.7549 9.46433 17.7347C9.35586 17.7114 9.24376 17.7105 9.13493 17.7321C9.0261 17.7538 8.92285 17.7974 8.83152 17.8604L7.19127 18.9531L4.56383 20.7056L3.98502 19.5479ZM13.5 20.2499C13.2671 20.2499 13.068 20.3326 12.9035 20.4971C12.7389 20.6617 12.6562 20.86 12.6562 21.0937C12.6562 21.3274 12.7389 21.5257 12.9035 21.6902C13.068 21.8547 13.2663 21.9374 13.5 21.9374H25.3125C25.5454 21.9374 25.7445 21.8547 25.909 21.6902C26.0736 21.5257 26.1562 21.3274 26.1562 21.0937C26.1562 20.86 26.0736 20.6617 25.909 20.4971C25.7445 20.3326 25.5462 20.2499 25.3125 20.2499H13.5Z" fill="#EEF0FF"/>
</g>
</g>
<defs>
<clipPath id="clip0_162_313">
<rect width="27" height="27" fill="white"/>
</clipPath>
</defs>
</svg>
