<svg width="90" height="91" viewBox="0 0 90 91" fill="none" xmlns="http://www.w3.org/2000/svg">
<g filter="url(#filter0_f_318_689)">
<path d="M76.7833 49.6778C78.9631 47.4444 78.9631 43.8798 76.7833 41.6464L49.4658 13.6571C47.2098 11.3456 43.4928 11.3456 41.2368 13.6571L13.9193 41.6464C11.7395 43.8798 11.7395 47.4444 13.9193 49.6778L41.2368 77.6672C43.4928 79.9787 47.2098 79.9787 49.4658 77.6672L76.7833 49.6778Z" fill="url(#paint0_linear_318_689)"/>
</g>
<path d="M76.7833 49.6778C78.9631 47.4444 78.9631 43.8798 76.7833 41.6464L49.4658 13.6571C47.2098 11.3456 43.4928 11.3456 41.2368 13.6571L13.9193 41.6464C11.7395 43.8798 11.7395 47.4444 13.9193 49.6778L41.2368 77.6672C43.4928 79.9787 47.2098 79.9787 49.4658 77.6672L76.7833 49.6778Z" fill="url(#paint1_linear_318_689)"/>
<mask id="mask0_318_689" style="mask-type:luminance" maskUnits="userSpaceOnUse" x="29" y="30" width="32" height="32">
<path d="M59.6794 60.2705V31.0537H30.4626V60.2705H59.6794Z" fill="white" stroke="white" stroke-width="1.82953"/>
</mask>
<g mask="url(#mask0_318_689)">
<path d="M54.7726 52.6958C54.7726 54.0299 53.6811 55.1213 52.3471 55.1213H37.7941C36.4601 55.1213 35.3687 54.0299 35.3687 52.6958C35.3687 51.7674 35.8974 50.9563 36.6687 50.5491C37.4015 50.1622 37.7941 49.3379 37.7941 48.5092V41.0535C37.7941 37.0348 41.0519 33.777 45.0706 33.777C49.0893 33.777 52.3471 37.0348 52.3471 41.0535V48.5092C52.3471 49.3379 52.7398 50.1622 53.4726 50.5491C54.2438 50.9563 54.7726 51.7674 54.7726 52.6958Z" stroke="#EBEBEB" stroke-width="1.82953" stroke-miterlimit="10" stroke-linecap="round" stroke-linejoin="round"/>
<path d="M42.645 59.9724H47.496" stroke="#EBEBEB" stroke-width="1.82953" stroke-miterlimit="10" stroke-linecap="round" stroke-linejoin="round"/>
<path d="M45.0708 31.3516V33.7771" stroke="#EBEBEB" stroke-width="1.82953" stroke-miterlimit="10" stroke-linecap="round" stroke-linejoin="round"/>
</g>
<defs>
<filter id="filter0_f_318_689" x="0.784668" y="0.42334" width="89.1333" height="90.4775" filterUnits="userSpaceOnUse" color-interpolation-filters="sRGB">
<feFlood flood-opacity="0" result="BackgroundImageFix"/>
<feBlend mode="normal" in="SourceGraphic" in2="BackgroundImageFix" result="shape"/>
<feGaussianBlur stdDeviation="5.75" result="effect1_foregroundBlur_318_689"/>
</filter>
<linearGradient id="paint0_linear_318_689" x1="10" y1="9.44141" x2="80.1417" y2="81.8828" gradientUnits="userSpaceOnUse">
<stop stop-color="#B4B4B4"/>
<stop offset="1" stop-color="#545454"/>
</linearGradient>
<linearGradient id="paint1_linear_318_689" x1="10" y1="9.44141" x2="80.1417" y2="81.8828" gradientUnits="userSpaceOnUse">
<stop stop-color="#B4B4B4"/>
<stop offset="1" stop-color="#545454"/>
</linearGradient>
</defs>
</svg>
