<svg width="90" height="91" viewBox="0 0 90 91" fill="none" xmlns="http://www.w3.org/2000/svg">
<g opacity="0.5" filter="url(#filter0_f_25_363)">
<path d="M76.7833 49.6778C78.9631 47.4444 78.9631 43.8798 76.7833 41.6464L49.4658 13.6571C47.2098 11.3456 43.4928 11.3456 41.2368 13.6571L13.9193 41.6464C11.7395 43.8798 11.7395 47.4444 13.9193 49.6778L41.2368 77.6672C43.4928 79.9787 47.2098 79.9787 49.4658 77.6672L76.7833 49.6778Z" fill="url(#paint0_linear_25_363)"/>
</g>
<path d="M76.7833 49.6778C78.9631 47.4444 78.9631 43.8798 76.7833 41.6464L49.4658 13.6571C47.2098 11.3456 43.4928 11.3456 41.2368 13.6571L13.9193 41.6464C11.7395 43.8798 11.7395 47.4444 13.9193 49.6778L41.2368 77.6672C43.4928 79.9787 47.2098 79.9787 49.4658 77.6672L76.7833 49.6778Z" fill="url(#paint1_linear_25_363)"/>
<mask id="mask0_25_363" style="mask-type:luminance" maskUnits="userSpaceOnUse" x="29" y="30" width="32" height="32">
<path d="M59.6794 60.2705V31.0537H30.4626V60.2705H59.6794Z" fill="white" stroke="white" stroke-width="1.82953"/>
</mask>
<g mask="url(#mask0_25_363)">
<path d="M54.7729 52.6958C54.7729 54.0299 53.6814 55.1213 52.3474 55.1213H37.7944C36.4604 55.1213 35.3689 54.0299 35.3689 52.6958C35.3689 51.7674 35.8977 50.9563 36.6689 50.5491C37.4017 50.1622 37.7944 49.3379 37.7944 48.5092V41.0535C37.7944 37.0348 41.0522 33.777 45.0709 33.777C49.0896 33.777 52.3474 37.0348 52.3474 41.0535V48.5092C52.3474 49.3379 52.74 50.1622 53.4728 50.5491C54.2441 50.9563 54.7729 51.7674 54.7729 52.6958Z" stroke="#EBEBEB" stroke-width="1.82953" stroke-miterlimit="10" stroke-linecap="round" stroke-linejoin="round"/>
<path d="M42.6455 59.9724H47.4965" stroke="#EBEBEB" stroke-width="1.82953" stroke-miterlimit="10" stroke-linecap="round" stroke-linejoin="round"/>
<path d="M45.071 31.3516V33.7771" stroke="#EBEBEB" stroke-width="1.82953" stroke-miterlimit="10" stroke-linecap="round" stroke-linejoin="round"/>
</g>
<defs>
<filter id="filter0_f_25_363" x="0.785786" y="0.424702" width="89.1311" height="90.4748" filterUnits="userSpaceOnUse" color-interpolation-filters="sRGB">
<feFlood flood-opacity="0" result="BackgroundImageFix"/>
<feBlend mode="normal" in="SourceGraphic" in2="BackgroundImageFix" result="shape"/>
<feGaussianBlur stdDeviation="5.74932" result="effect1_foregroundBlur_25_363"/>
</filter>
<linearGradient id="paint0_linear_25_363" x1="10" y1="9.44141" x2="80.1417" y2="81.8828" gradientUnits="userSpaceOnUse">
<stop stop-color="#FF6D6D"/>
<stop offset="1" stop-color="#EB1D1D"/>
</linearGradient>
<linearGradient id="paint1_linear_25_363" x1="10" y1="9.44141" x2="80.1417" y2="81.8828" gradientUnits="userSpaceOnUse">
<stop stop-color="#FF6D6D"/>
<stop offset="1" stop-color="#EB1D1D"/>
</linearGradient>
</defs>
</svg>
