<svg width="244" height="299" viewBox="0 0 244 299" fill="none" xmlns="http://www.w3.org/2000/svg">
<g clip-path="url(#clip0_177_174)">
<path d="M50.02 265.158V270.672H35.8192V279.407H46.7016V284.824H35.8192V299.22H28.9872V265.158H50.02ZM72.4325 299.22L64.9173 285.946H61.6965V299.22H54.8645V265.158H67.6501C70.2853 265.158 72.5301 265.629 74.3845 266.573C76.2389 267.484 77.6216 268.736 78.5325 270.33C79.476 271.892 79.9477 273.649 79.9477 275.601C79.9477 277.846 79.2971 279.879 77.9957 281.701C76.6944 283.49 74.7587 284.726 72.1885 285.41L80.3381 299.22H72.4325ZM61.6965 280.822H67.4061C69.2605 280.822 70.6432 280.383 71.5541 279.505C72.4651 278.594 72.9205 277.341 72.9205 275.747C72.9205 274.186 72.4651 272.982 71.5541 272.136C70.6432 271.258 69.2605 270.818 67.4061 270.818H61.6965V280.822ZM92.959 265.158V299.22H86.127V265.158H92.959ZM106.541 270.672V279.212H118.009V284.629H106.541V293.657H119.473V299.22H99.7091V265.109H119.473V270.672H106.541ZM154.815 299.22H147.983L132.514 275.845V299.22H125.682V265.109H132.514L147.983 288.533V265.109H154.815V299.22ZM168.545 293.462H183.868V299.22H160.64V293.95L175.865 270.916H160.64V265.158H183.868V270.428L168.545 293.462ZM216.768 265.158L205.251 287.362V299.22H198.419V287.362L186.854 265.158H194.564L201.884 280.725L209.155 265.158H216.768Z" fill="url(#paint0_linear_177_174)"/>
<path d="M191.872 33.8797C173.199 14.3107 148.389 3.51758 121.993 3.51758C108.838 3.51758 96.0791 6.19011 84.2691 11.276C72.4758 16.3625 61.6483 23.8625 52.338 33.5347C33.7347 52.8795 23.3898 78.7413 23.1829 106.345C22.9931 131.19 31.8381 155.534 48.7517 176.758C65.3034 197.534 121.993 240.482 121.993 240.482C121.993 240.482 176.596 199.275 195.01 177.034C211.889 156.638 220.82 132.483 220.82 107.19C220.82 79.5002 210.544 53.4658 191.872 33.8797ZM121.993 166.258C86.2862 166.258 57.338 137.327 57.338 101.603C57.338 65.8967 86.2862 36.9485 121.993 36.9485C157.7 36.9485 186.648 65.8967 186.648 101.603C186.648 137.327 157.7 166.258 121.993 166.258Z" fill="url(#paint1_linear_177_174)"/>
<path d="M169.267 139.154C159.87 152.585 142.232 161.637 122.008 161.637C101.784 161.637 84.1292 152.585 74.7327 139.137C76.9568 136.292 79.905 134.206 83.2327 133.223C83.2671 133.051 83.2844 132.809 83.2844 132.585C83.2844 132.051 83.1983 131.533 83.1983 131.533C79.1984 129.482 76.3707 124.671 76.3707 119.068C76.3707 111.603 81.3707 105.551 87.5259 105.551C93.6984 105.551 98.6982 111.603 98.6982 119.068C98.6982 121.878 97.9913 124.464 96.7845 126.637C95.5776 128.792 93.8706 130.499 91.8535 131.533C91.8535 131.533 91.6983 132.602 91.8535 133.223C95.6638 134.344 98.9397 136.913 101.216 140.396L101.112 140.499H101.25C104.595 134.844 109.715 130.62 115.715 128.861C115.785 128.585 115.802 128.24 115.802 127.913C115.802 127.137 115.681 126.361 115.681 126.361C109.802 123.361 105.664 116.31 105.664 108.086C105.664 97.1546 112.991 88.2754 122.026 88.2754C131.078 88.2754 138.405 97.1548 138.405 108.086C138.405 112.206 137.371 116.016 135.595 119.189C133.819 122.344 131.319 124.861 128.371 126.361C128.371 126.361 128.129 127.93 128.353 128.861C134.319 130.62 139.422 134.809 142.767 140.43C145.043 136.947 148.336 134.344 152.164 133.223C152.198 133.051 152.215 132.81 152.215 132.586C152.215 132.051 152.129 131.534 152.129 131.534C148.129 129.482 145.302 124.672 145.302 119.068C145.302 111.603 150.301 105.551 156.457 105.551C162.629 105.551 167.629 111.603 167.629 119.068C167.629 121.879 166.922 124.465 165.715 126.637C164.508 128.793 162.801 130.499 160.784 131.534C160.784 131.534 160.629 132.603 160.784 133.224C164.129 134.206 167.06 136.309 169.267 139.154Z" fill="url(#paint2_linear_177_174)"/>
</g>
<defs>
<linearGradient id="paint0_linear_177_174" x1="5.47193" y1="247.657" x2="36.581" y2="370.388" gradientUnits="userSpaceOnUse">
<stop offset="0.087544" stop-color="#FF8579"/>
<stop offset="1" stop-color="#FFA560"/>
</linearGradient>
<linearGradient id="paint1_linear_177_174" x1="2.44001" y1="11.4282" x2="209.227" y2="270.133" gradientUnits="userSpaceOnUse">
<stop offset="0.087544" stop-color="#FF8579"/>
<stop offset="1" stop-color="#FFA560"/>
</linearGradient>
<linearGradient id="paint2_linear_177_174" x1="64.8125" y1="90.7244" x2="118.383" y2="194.272" gradientUnits="userSpaceOnUse">
<stop offset="0.087544" stop-color="#FF8579"/>
<stop offset="1" stop-color="#FFA560"/>
</linearGradient>
<clipPath id="clip0_177_174">
<rect width="244" height="298.9" fill="white"/>
</clipPath>
</defs>
</svg>
