<svg width="49" height="48" viewBox="0 0 49 48" fill="none" xmlns="http://www.w3.org/2000/svg">
<rect x="1.82935" y="1.63782" width="44.608" height="44.608" rx="22.304" fill="url(#paint0_linear_25_165)"/>
<path d="M16.7149 28.4162C16.58 28.4161 16.4481 28.3761 16.336 28.3011C16.2238 28.2262 16.1364 28.1196 16.0848 27.995C16.0331 27.8704 16.0196 27.7332 16.0459 27.6009C16.0722 27.4686 16.1372 27.347 16.2326 27.2516L26.8936 16.5906C26.9565 16.5254 27.0318 16.4735 27.1151 16.4377C27.1983 16.402 27.2878 16.3831 27.3784 16.3823C27.469 16.3816 27.5588 16.3988 27.6427 16.4331C27.7265 16.4674 27.8027 16.5181 27.8667 16.5821C27.9308 16.6462 27.9814 16.7224 28.0157 16.8062C28.05 16.8901 28.0673 16.9799 28.0665 17.0705C28.0657 17.1611 28.0469 17.2506 28.0112 17.3338C27.9754 17.417 27.9234 17.4923 27.8583 17.5553L17.1972 28.2163C17.0642 28.3493 16.8896 28.4162 16.7149 28.4162Z" fill="white"/>
<path d="M15.6614 33.3297C15.5596 33.3298 15.4591 33.3071 15.3672 33.2633C15.2753 33.2195 15.1944 33.1556 15.1304 33.0765C15.0664 32.9973 15.0209 32.9048 14.9973 32.8058C14.9736 32.7068 14.9725 32.6038 14.9939 32.5042L16.0479 27.5912C16.0664 27.5034 16.1021 27.4201 16.1529 27.3461C16.2038 27.2721 16.2687 27.2088 16.344 27.16C16.4193 27.1111 16.5035 27.0776 16.5918 27.0613C16.6801 27.045 16.7707 27.0464 16.8585 27.0652C16.9462 27.084 17.0294 27.12 17.1033 27.171C17.1771 27.2221 17.2402 27.2872 17.2888 27.3627C17.3374 27.4381 17.3707 27.5224 17.3867 27.6108C17.4027 27.6991 17.4011 27.7897 17.382 27.8774L16.3279 32.7904C16.2952 32.943 16.2113 33.0797 16.09 33.1779C15.9687 33.276 15.8174 33.3296 15.6614 33.3297ZM20.5737 32.2757C20.4388 32.2757 20.3069 32.2356 20.1948 32.1607C20.0826 32.0857 19.9952 31.9792 19.9436 31.8545C19.8919 31.7299 19.8784 31.5927 19.9047 31.4604C19.9311 31.3281 19.996 31.2066 20.0914 31.1111L30.7524 20.4505C30.8153 20.3853 30.8906 20.3333 30.9739 20.2976C31.0571 20.2618 31.1466 20.243 31.2372 20.2422C31.3278 20.2414 31.4176 20.2587 31.5015 20.293C31.5853 20.3273 31.6615 20.3779 31.7255 20.442C31.7896 20.5061 31.8402 20.5822 31.8745 20.6661C31.9088 20.7499 31.9261 20.8397 31.9253 20.9303C31.9245 21.0209 31.9057 21.1104 31.87 21.1937C31.8342 21.2769 31.7822 21.3522 31.7171 21.4151L21.0564 32.0758C20.9931 32.1393 20.9178 32.1896 20.835 32.2239C20.7522 32.2582 20.6634 32.2758 20.5737 32.2757Z" fill="white"/>
<path d="M15.6592 33.3299C15.491 33.3292 15.3291 33.2664 15.2044 33.1537C15.0797 33.041 15.0009 32.8862 14.9833 32.7191C14.9656 32.5519 15.0103 32.3841 15.1087 32.2478C15.2071 32.1115 15.3523 32.0163 15.5166 31.9805L20.4296 30.9264C20.6062 30.8891 20.7905 30.9234 20.9419 31.0216C21.0934 31.1199 21.1997 31.2743 21.2376 31.4508C21.2755 31.6274 21.2418 31.8117 21.144 31.9635C21.0462 32.1153 20.8922 32.2221 20.7158 32.2605L15.8028 33.3145C15.7556 33.3248 15.7074 33.33 15.6592 33.3299ZM29.3042 23.5445C29.2146 23.5447 29.1258 23.5271 29.043 23.4928C28.9603 23.4585 28.8851 23.4081 28.8219 23.3446L24.9629 19.4856C24.8977 19.4227 24.8458 19.3474 24.81 19.2642C24.7743 19.1809 24.7554 19.0914 24.7547 19.0008C24.7539 18.9103 24.7711 18.8204 24.8054 18.7366C24.8397 18.6527 24.8904 18.5766 24.9544 18.5125C25.0185 18.4485 25.0947 18.3978 25.1785 18.3635C25.2624 18.3292 25.3522 18.3119 25.4428 18.3127C25.5334 18.3135 25.6229 18.3323 25.7061 18.3681C25.7893 18.4038 25.8646 18.4558 25.9276 18.521L29.7865 22.3799C29.8819 22.4753 29.9469 22.5969 29.9732 22.7292C29.9995 22.8615 29.986 22.9987 29.9343 23.1233C29.8827 23.248 29.7953 23.3545 29.6831 23.4295C29.571 23.5044 29.4391 23.5445 29.3042 23.5445ZM31.2339 21.6152C31.0988 21.6153 30.9668 21.5753 30.8546 21.5004C30.7423 21.4254 30.6547 21.3188 30.6031 21.1941C30.5514 21.0694 30.5379 20.9321 30.5642 20.7997C30.5906 20.6673 30.6557 20.5457 30.7512 20.4503C31.1308 20.0706 31.3399 19.5566 31.3399 19.0033C31.3399 18.45 31.1308 17.936 30.7512 17.5563C30.3712 17.1763 29.8571 16.9672 29.3039 16.9672C28.7506 16.9672 28.2365 17.1763 27.8569 17.5563C27.7935 17.6197 27.7183 17.6699 27.6355 17.7042C27.5527 17.7385 27.464 17.7562 27.3744 17.7562C27.2848 17.7562 27.196 17.7385 27.1132 17.7042C27.0305 17.6699 26.9552 17.6197 26.8919 17.5563C26.8285 17.493 26.7783 17.4177 26.744 17.3349C26.7097 17.2522 26.692 17.1634 26.692 17.0738C26.692 16.9842 26.7097 16.8955 26.744 16.8127C26.7783 16.7299 26.8285 16.6547 26.8919 16.5913C27.5291 15.9538 28.3856 15.6028 29.3039 15.6028C30.2218 15.6028 31.0786 15.9538 31.7158 16.5913C32.3534 17.2285 32.7044 18.085 32.7044 19.0033C32.7044 19.9216 32.3534 20.7781 31.7158 21.4153C31.6527 21.4787 31.5775 21.5291 31.4948 21.5634C31.4121 21.5977 31.3234 21.6153 31.2339 21.6152Z" fill="white"/>
<rect x="1.82935" y="1.63782" width="44.608" height="44.608" rx="22.304" stroke="#25232D" stroke-width="3.27465"/>
<defs>
<linearGradient id="paint0_linear_25_165" x1="-6.3061" y1="-7.32029" x2="69.0108" y2="57.6269" gradientUnits="userSpaceOnUse">
<stop stop-color="#FF8579"/>
<stop offset="1" stop-color="#FFA560"/>
</linearGradient>
</defs>
</svg>
