<svg width="23" height="23" viewBox="0 0 23 23" fill="none" xmlns="http://www.w3.org/2000/svg">
<g clip-path="url(#clip0_615_279)">
<path d="M4.28125 4.17773H6.80692V6.70183H4.28125V4.17773ZM12.566 17.3898H15.0901V19.9155H12.566V17.3898ZM20.1386 14.8654H22.6627V17.3895H20.1386V14.8654ZM17.6126 14.8654H15.0901V12.3425H12.566V14.8666H15.0901V17.3895H17.6142V14.8666H20.1375V12.3425H17.6126V14.8654ZM17.6126 19.9136H20.1375V22.4384H17.6126V19.9136Z" fill="#9496A2"/>
<path d="M1.61175 10.102H9.47667C9.87912 10.102 10.2053 9.7758 10.2057 9.37335V1.50763C10.2057 1.10479 9.8795 0.778564 9.47667 0.778564H1.61175C1.20892 0.778564 0.88269 1.10479 0.88269 1.50763V9.37335C0.88269 9.7758 1.20892 10.102 1.61175 10.102ZM2.34044 2.23631H8.7476V8.64428H2.34044V2.23631ZM15.8673 4.17784H18.3914V6.70194H15.8673V4.17784Z" fill="#9496A2"/>
<path d="M13.1963 10.102H21.0628C21.4653 10.102 21.7915 9.7758 21.7919 9.37335V1.50763C21.7919 1.10479 21.4657 0.778564 21.0628 0.778564H13.1963C12.7935 0.778564 12.4672 1.10479 12.4672 1.50763V9.37296C12.4672 9.7758 12.7935 10.102 13.1963 10.102ZM13.925 2.23631H20.3338V8.64428H13.925V2.23631ZM4.29822 15.7454H6.82231V18.2695H4.29822V15.7454Z" fill="#9496A2"/>
<path d="M9.49366 12.3452H1.62714C1.2243 12.3452 0.898071 12.6714 0.898071 13.0743V20.94C0.898071 21.3428 1.2243 21.6691 1.62714 21.6691H9.49366C9.89612 21.6691 10.2223 21.3425 10.2227 20.94V13.0743C10.2227 12.6714 9.8965 12.3452 9.49366 12.3452ZM8.7646 20.2109H2.35582V13.8033H8.7646V20.2109Z" fill="#9496A2"/>
</g>
<defs>
<clipPath id="clip0_615_279">
<rect width="22" height="22" fill="white" transform="translate(0.772705 0.608643)"/>
</clipPath>
</defs>
</svg>
