<svg width="21" height="20" viewBox="0 0 21 20" fill="none" xmlns="http://www.w3.org/2000/svg">
<path d="M14.9993 13.5297L19.721 18.1759L14.9993 13.5297ZM14.9993 13.5297C16.2302 12.1513 16.9835 10.348 16.9835 8.36752V8.3675C16.9829 4.03859 13.4179 0.533203 9.02406 0.533203C4.63024 0.533203 1.06519 4.03859 1.06519 8.36752C1.06519 12.6964 4.63024 16.2018 9.02406 16.2018C10.8827 16.2018 12.591 15.5724 13.9457 14.5215L18.6932 19.1935C18.9769 19.473 19.4367 19.4731 19.7205 19.1937M14.9993 13.5297L19.7212 18.1761C19.7888 18.2424 19.8426 18.3215 19.8793 18.4089C19.916 18.4963 19.9349 18.5902 19.9348 18.685C19.9347 18.7799 19.9157 18.8737 19.8789 18.9611C19.8421 19.0484 19.7882 19.1275 19.7205 19.1937M19.7205 19.1937C19.7204 19.1938 19.7204 19.1938 19.7203 19.1939L19.633 19.1045L19.7207 19.1935C19.7206 19.1936 19.7206 19.1936 19.7205 19.1937ZM9.02406 14.7657C5.43036 14.7657 2.52054 11.8993 2.52054 8.36752C2.52054 4.83577 5.43036 1.96933 9.02406 1.96933C12.6178 1.96933 15.5276 4.83577 15.5276 8.36752C15.5276 11.8993 12.6178 14.7657 9.02406 14.7657Z" fill="#9496A2" stroke="#9496A2" stroke-width="0.25"/>
</svg>
