<svg width="298" height="49" viewBox="0 0 298 49" fill="none" xmlns="http://www.w3.org/2000/svg">
<path d="M17.5114 48.8371C13.1755 48.8371 9.48359 47.8712 6.43561 45.9394C3.43056 43.9646 1.32702 41.2386 0.125 37.7614L6.5 34.0265C8.30303 39.0922 12.0379 41.625 17.7045 41.625C20.452 41.625 22.5341 41.0884 23.9508 40.0152C25.3674 38.9419 26.0758 37.5038 26.0758 35.7008C26.0758 33.8977 25.3245 32.5025 23.822 31.5151C22.3194 30.5278 19.6578 29.4545 15.8371 28.2955C11.9306 27.1364 8.77525 25.7626 6.37121 24.1742C3.45202 22.1136 1.99242 19.0871 1.99242 15.0947C1.99242 11.1023 3.40909 7.94696 6.24243 5.62878C9.03283 3.26767 12.4457 2.08711 16.4811 2.08711C20.0442 2.08711 23.178 2.96717 25.8826 4.72727C28.6301 6.44444 30.7336 8.86995 32.1932 12.0038L25.947 15.6098C24.0581 11.4028 20.9028 9.29924 16.4811 9.29924C14.3346 9.29924 12.6174 9.81439 11.3295 10.8447C10.0417 11.8321 9.39773 13.1843 9.39773 14.9015C9.39773 16.5758 10.0417 17.9066 11.3295 18.8939C12.6174 19.8384 15 20.8472 18.4773 21.9205C20.6237 22.6502 21.8687 23.0795 22.2121 23.2083C22.7702 23.38 23.8864 23.8093 25.5606 24.4962C26.9343 25.0543 28.029 25.6553 28.8447 26.2992C32.1932 28.9179 33.7386 32.0088 33.4811 35.572C33.4811 39.6503 32 42.8914 29.0379 45.2955C26.1616 47.6566 22.3194 48.8371 17.5114 48.8371ZM67.5294 43.9432C64.2667 47.2058 60.2528 48.8371 55.4877 48.8371C50.7225 48.8371 46.7087 47.2058 43.446 43.9432C40.1405 40.6376 38.4877 36.6237 38.4877 31.9015C38.4877 27.1793 40.1405 23.1654 43.446 19.8598C46.7087 16.5972 50.7225 14.9659 55.4877 14.9659C60.2528 14.9659 64.2667 16.5972 67.5294 19.8598C70.8349 23.1654 72.4877 27.1793 72.4877 31.9015C72.4877 36.6237 70.8349 40.6376 67.5294 43.9432ZM45.4422 31.9015C45.4422 34.8207 46.4081 37.2462 48.34 39.178C50.2718 41.1098 52.6544 42.0758 55.4877 42.0758C58.321 42.0758 60.7036 41.1098 62.6354 39.178C64.5672 37.2462 65.5332 34.8207 65.5332 31.9015C65.5332 28.9823 64.5672 26.5568 62.6354 24.625C60.7036 22.6932 58.321 21.7273 55.4877 21.7273C52.6544 21.7273 50.2718 22.6932 48.34 24.625C46.4081 26.5568 45.4422 28.9823 45.4422 31.9015ZM93.9731 48.8371C89.1221 48.8371 85.0653 47.2058 81.8027 43.9432C78.583 40.6376 76.9731 36.6237 76.9731 31.9015C76.9731 27.0934 78.583 23.0795 81.8027 19.8598C85.0653 16.5972 89.1221 14.9659 93.9731 14.9659C97.107 14.9659 99.9618 15.7172 102.538 17.2197C105.113 18.7222 107.045 20.7399 108.333 23.2727L102.344 26.75C101.615 25.2045 100.498 24.0025 98.9959 23.1439C97.5363 22.2424 95.8406 21.7917 93.9087 21.7917C91.0754 21.7917 88.6928 22.7576 86.761 24.6894C84.8721 26.6641 83.9277 29.0682 83.9277 31.9015C83.9277 34.7348 84.8721 37.1389 86.761 39.1136C88.6928 41.0455 91.0754 42.0114 93.9087 42.0114C95.7976 42.0114 97.4933 41.5821 98.9959 40.7235C100.541 39.822 101.7 38.5985 102.473 37.053L108.462 40.4659C107.088 43.0417 105.092 45.0808 102.473 46.5833C99.8974 48.0859 97.064 48.8371 93.9731 48.8371ZM120.057 9.6856C119.198 10.5442 118.168 10.9735 116.966 10.9735C115.764 10.9735 114.712 10.5442 113.81 9.6856C112.952 8.78409 112.523 7.73232 112.523 6.5303C112.523 5.32828 112.952 4.29797 113.81 3.43939C114.669 2.53787 115.721 2.08711 116.966 2.08711C118.211 2.08711 119.263 2.53787 120.121 3.43939C120.98 4.29797 121.409 5.32828 121.409 6.5303C121.409 7.73232 120.958 8.78409 120.057 9.6856ZM120.443 48H113.489V15.803H120.443V48ZM154.018 20.375V15.803H160.973V48H154.018V43.3636C151.399 47.0126 147.643 48.8371 142.749 48.8371C138.327 48.8371 134.55 47.2058 131.416 43.9432C128.282 40.6806 126.715 36.6667 126.715 31.9015C126.715 27.1364 128.282 23.1225 131.416 19.8598C134.55 16.5972 138.327 14.9659 142.749 14.9659C147.643 14.9659 151.399 16.7689 154.018 20.375ZM136.567 39.3068C138.499 41.2386 140.925 42.2045 143.844 42.2045C146.763 42.2045 149.188 41.2386 151.12 39.3068C153.052 37.3321 154.018 34.8636 154.018 31.9015C154.018 28.9394 153.052 26.4924 151.12 24.5606C149.188 22.5859 146.763 21.5985 143.844 21.5985C140.925 21.5985 138.499 22.5859 136.567 24.5606C134.635 26.4924 133.669 28.9394 133.669 31.9015C133.669 34.8207 134.635 37.2891 136.567 39.3068ZM176.033 48H169.079V0.99242H176.033V48ZM211.604 33.5114V2.92424H219.01V48H213.214L191.964 17.4129V48H184.559V2.92424H190.354L211.604 33.5114ZM253.061 20.375V15.803H260.016V48H253.061V43.3636C250.443 47.0126 246.686 48.8371 241.792 48.8371C237.371 48.8371 233.593 47.2058 230.459 43.9432C227.325 40.6806 225.758 36.6667 225.758 31.9015C225.758 27.1364 227.325 23.1225 230.459 19.8598C233.593 16.5972 237.371 14.9659 241.792 14.9659C246.686 14.9659 250.443 16.7689 253.061 20.375ZM235.611 39.3068C237.542 41.2386 239.968 42.2045 242.887 42.2045C245.806 42.2045 248.232 41.2386 250.164 39.3068C252.095 37.3321 253.061 34.8636 253.061 31.9015C253.061 28.9394 252.095 26.4924 250.164 24.5606C248.232 22.5859 245.806 21.5985 242.887 21.5985C239.968 21.5985 237.542 22.5859 235.611 24.5606C233.679 26.4924 232.713 28.9394 232.713 31.9015C232.713 34.8207 233.679 37.2891 235.611 39.3068ZM281.001 40.2727L289.952 15.803H297.55L284.993 48H276.944L264.387 15.803H271.986L281.001 40.2727Z" fill="white"/>
</svg>
