<svg width="23" height="23" viewBox="0 0 23 23" fill="none" xmlns="http://www.w3.org/2000/svg">
<path d="M11.4738 11.0876C12.9654 11.0876 14.2569 10.5526 15.3124 9.49705C16.3676 8.44172 16.9028 7.15042 16.9028 5.65864C16.9028 4.16731 16.3678 2.87588 15.3122 1.82015C14.2567 0.764953 12.9652 0.22998 11.4738 0.22998C9.98197 0.22998 8.69063 0.764953 7.6353 1.82033C6.57997 2.8757 6.04478 4.16717 6.04478 5.65864C6.04478 7.15042 6.57993 8.44189 7.63535 9.49727C8.69103 10.5525 9.9825 11.0876 11.4738 11.0876H11.4738ZM8.56944 2.75428C9.3792 1.94447 10.3292 1.55086 11.4738 1.55086C12.6182 1.55086 13.5683 1.94447 14.3783 2.75428C15.1881 3.56423 15.5819 4.51434 15.5819 5.6586C15.5819 6.80321 15.1881 7.75319 14.3783 8.56314C13.5683 9.37312 12.6182 9.76674 11.4738 9.76674C10.3295 9.76674 9.3796 9.37295 8.56944 8.56314C7.75945 7.75337 7.36566 6.80325 7.36566 5.65864C7.36566 4.51434 7.75945 3.56423 8.56944 2.75428ZM20.973 17.5621C20.9426 17.123 20.881 16.6438 20.7904 16.1379C20.6989 15.6282 20.5811 15.1464 20.4401 14.7059C20.2943 14.2507 20.0964 13.8013 19.8513 13.3705C19.5973 12.9233 19.2988 12.534 18.9638 12.2136C18.6135 11.8785 18.1846 11.609 17.6886 11.4124C17.1944 11.217 16.6467 11.1179 16.0608 11.1179C15.8307 11.1179 15.6082 11.2123 15.1785 11.4921C14.873 11.691 14.5666 11.8885 14.2593 12.0847C13.964 12.2728 13.564 12.4491 13.07 12.6087C12.5879 12.7646 12.0985 12.8438 11.6153 12.8438C11.1324 12.8438 10.643 12.7646 10.1606 12.6087C9.66712 12.4492 9.26694 12.273 8.97216 12.0848C8.6301 11.8663 8.32062 11.6668 8.05216 11.4919C7.62276 11.2121 7.40022 11.1177 7.17015 11.1177C6.58407 11.1177 6.03655 11.2169 5.54247 11.4126C5.04686 11.6089 4.61781 11.8783 4.26716 12.2138C3.93219 12.5344 3.63366 12.9235 3.37982 13.3705C3.13514 13.8012 2.93704 14.2506 2.79119 14.7061C2.65031 15.1465 2.53255 15.6282 2.44107 16.1379C2.35025 16.6432 2.28888 17.1224 2.25841 17.5627C2.22848 17.9931 2.21338 18.4411 2.21338 18.8937C2.21338 20.0703 2.5874 21.0228 3.32497 21.7253C4.05343 22.4185 5.01714 22.77 6.1894 22.77H17.0426C18.2145 22.77 19.1782 22.4185 19.9068 21.7253C20.6446 21.0233 21.0186 20.0705 21.0186 18.8935C21.0184 18.4394 21.0031 17.9914 20.973 17.5621ZM18.9961 20.7683C18.5148 21.2264 17.8757 21.4491 17.0424 21.4491H6.18944C5.35595 21.4491 4.7169 21.2264 4.23573 20.7685C3.76371 20.3191 3.5343 19.7057 3.5343 18.8937C3.5343 18.4713 3.54821 18.0543 3.57612 17.654C3.60324 17.2612 3.6588 16.8297 3.74121 16.3713C3.82252 15.9185 3.92602 15.4936 4.04916 15.1089C4.16731 14.74 4.32844 14.3748 4.52826 14.0229C4.71897 13.6876 4.93839 13.3999 5.18051 13.1681C5.40701 12.9512 5.69251 12.7738 6.02885 12.6407C6.33991 12.5175 6.68955 12.4501 7.06907 12.4399C7.1153 12.4646 7.19771 12.5115 7.33115 12.5985C7.60268 12.7755 7.91565 12.9774 8.26167 13.1983C8.65172 13.447 9.15416 13.6716 9.7545 13.8654C10.3682 14.0638 10.9942 14.1646 11.6155 14.1646C12.2369 14.1646 12.863 14.0638 13.4764 13.8655C14.0772 13.6714 14.5795 13.447 14.9701 13.198C15.3242 12.9717 15.6284 12.7757 15.8999 12.5985C16.0333 12.5116 16.1157 12.4645 16.162 12.44C16.5417 12.4501 16.8913 12.5175 17.2025 12.6406C17.5387 12.7738 17.8242 12.9514 18.0507 13.168C18.2928 13.3997 18.5122 13.6874 18.7029 14.0231C18.9029 14.3748 19.0643 14.7402 19.1822 15.1087C19.3055 15.4939 19.4092 15.9187 19.4904 16.3711C19.5726 16.8304 19.6283 17.2621 19.6555 17.6542V17.6545C19.6835 18.0533 19.6976 18.4701 19.6978 18.8937C19.6976 19.7059 19.4682 20.3192 18.9962 20.7683H18.9961Z" fill="#EEF0FF"/>
</svg>
