<svg width="90" height="92" viewBox="0 0 90 92" fill="none" xmlns="http://www.w3.org/2000/svg">
<g opacity="0.5" filter="url(#filter0_f_25_356)">
<path d="M76.7833 50.2364C78.9631 48.003 78.9631 44.4384 76.7833 42.205L49.4658 14.2157C47.2098 11.9042 43.4928 11.9042 41.2368 14.2157L13.9193 42.205C11.7395 44.4384 11.7395 48.003 13.9193 50.2364L41.2368 78.2258C43.4928 80.5373 47.2098 80.5373 49.4658 78.2258L76.7833 50.2364Z" fill="url(#paint0_linear_25_356)"/>
</g>
<path d="M76.7833 50.2364C78.9631 48.003 78.9631 44.4384 76.7833 42.205L49.4658 14.2157C47.2098 11.9042 43.4928 11.9042 41.2368 14.2157L13.9193 42.205C11.7395 44.4384 11.7395 48.003 13.9193 50.2364L41.2368 78.2258C43.4928 80.5373 47.2098 80.5373 49.4658 78.2258L76.7833 50.2364Z" fill="url(#paint1_linear_25_356)"/>
<g clip-path="url(#clip0_25_356)">
<path d="M58.5062 45.9869H55.5684C55.1804 41.1308 51.2951 37.2453 46.4389 36.8576V33.9355C46.4389 33.4936 46.0806 33.1353 45.6387 33.1353C45.1967 33.1353 44.8385 33.4936 44.8385 33.9355V36.8576C39.9822 37.2453 36.0969 41.1308 35.709 45.9869H32.7858C32.3439 45.9869 31.9856 46.3452 31.9856 46.7873C31.9856 47.2292 32.3439 47.5875 32.7858 47.5875H35.709C36.0969 52.4436 39.9822 56.3291 44.8385 56.717V59.6389C44.8385 60.0808 45.1968 60.4392 45.6387 60.4392C46.0808 60.4392 46.4389 60.0808 46.4389 59.6389V56.717C51.2951 56.3291 55.1807 52.4436 55.5684 47.5875H58.5062C58.948 47.5875 59.3064 47.2292 59.3064 46.7873C59.3064 46.3452 58.948 45.9869 58.5062 45.9869ZM45.6387 55.1487C41.0282 55.1487 37.2773 51.3976 37.2773 46.7873C37.2773 42.1768 41.0282 38.4257 45.6387 38.4257C50.2492 38.4257 54.0001 42.1768 54.0001 46.7873C54.0001 51.3976 50.2493 55.1487 45.6387 55.1487Z" fill="#696771"/>
</g>
<defs>
<filter id="filter0_f_25_356" x="0.785786" y="0.983295" width="89.1311" height="90.4748" filterUnits="userSpaceOnUse" color-interpolation-filters="sRGB">
<feFlood flood-opacity="0" result="BackgroundImageFix"/>
<feBlend mode="normal" in="SourceGraphic" in2="BackgroundImageFix" result="shape"/>
<feGaussianBlur stdDeviation="5.74932" result="effect1_foregroundBlur_25_356"/>
</filter>
<linearGradient id="paint0_linear_25_356" x1="10" y1="10" x2="80.1417" y2="82.4414" gradientUnits="userSpaceOnUse">
<stop stop-color="#FDFCFF"/>
<stop offset="1" stop-color="#EFEFEF"/>
</linearGradient>
<linearGradient id="paint1_linear_25_356" x1="10" y1="10" x2="80.1417" y2="82.4414" gradientUnits="userSpaceOnUse">
<stop stop-color="#FDFCFF"/>
<stop offset="1" stop-color="#EFEFEF"/>
</linearGradient>
<clipPath id="clip0_25_356">
<rect width="27.5967" height="27.5967" fill="white" transform="translate(31.8477 32.9973)"/>
</clipPath>
</defs>
</svg>
