<svg width="15" height="15" viewBox="0 0 15 15" fill="none" xmlns="http://www.w3.org/2000/svg">
<g clip-path="url(#clip0_315_496)">
<path d="M0.800184 14.925C0.656754 14.9251 0.516538 14.8826 0.397271 14.8029C0.278004 14.7232 0.185046 14.61 0.130154 14.4775C0.0752618 14.3449 0.0609022 14.1991 0.0888914 14.0585C0.116881 13.9178 0.185961 13.7886 0.287395 13.6872L13.6872 0.287355C13.8232 0.151355 14.0077 0.0749512 14.2 0.0749512C14.3923 0.0749512 14.5768 0.151355 14.7128 0.287355C14.8488 0.423355 14.9252 0.607811 14.9252 0.800144C14.9252 0.992478 14.8488 1.17693 14.7128 1.31293L1.31297 14.7127C1.2457 14.7802 1.16576 14.8336 1.07776 14.8701C0.98976 14.9065 0.895429 14.9252 0.800184 14.925Z" fill="#403D4B"/>
<path d="M14.2002 14.925C14.1049 14.9252 14.0106 14.9065 13.9226 14.8701C13.8346 14.8336 13.7547 14.7802 13.6874 14.7127L0.2876 1.31293C0.151599 1.17693 0.0751953 0.992478 0.0751953 0.800144C0.0751953 0.607811 0.151599 0.423355 0.2876 0.287355C0.4236 0.151355 0.608055 0.0749512 0.800389 0.0749512C0.992722 0.0749512 1.17718 0.151355 1.31318 0.287355L14.713 13.6872C14.8144 13.7886 14.8835 13.9178 14.9115 14.0585C14.9395 14.1991 14.9251 14.3449 14.8702 14.4775C14.8153 14.61 14.7224 14.7232 14.6031 14.8029C14.4838 14.8826 14.3436 14.9251 14.2002 14.925Z" fill="#403D4B"/>
</g>
<defs>
<clipPath id="clip0_315_496">
<rect width="15" height="15" fill="white"/>
</clipPath>
</defs>
</svg>
